<svg xmlns="http://www.w3.org/2000/svg" width="200" height="200" viewBox="0 0 100 100">
  <!-- Central Nucleus (Atom Core) -->


  <!-- Atom Orbit Paths -->
<ellipse cx="50" cy="50" rx="24" ry="8" fill="none" stroke="lightgray" stroke-width="2"
    transform="rotate(30 50 50)" />
  
  <!-- Ellipse rotated by 60 degrees -->
  <ellipse cx="50" cy="50" rx="8" ry="24" fill="none" stroke="lightgray" stroke-width="2"
    transform="rotate(60 50 50)" />
  
  <!-- Ellipse rotated by 90 degrees -->
  <ellipse cx="50" cy="50" rx="21" ry="8" fill="none" stroke="lightgray" stroke-width="2"
    transform="rotate(90 50 50)" />



  <circle r="4" fill="#DAFDBA">
    <animateMotion repeatCount="indefinite" dur="1s">
      <!-- Define the elliptical path using the same ellipse attributes -->
      <mpath href="#ellipsePathRed" />
    </animateMotion>
  </circle>

  <!-- Define the Ellipse Path -->
  <path id="ellipsePathRed" d="M 30 45 A 1 3 300 1 1 65 52 A 1 3 300 1 1 30 45" fill="none" />


  <circle r="4" fill="#9AEBA3">
    <animateMotion repeatCount="indefinite" dur="1s">
      <!-- Define the elliptical path using the same ellipse attributes -->
      <mpath href="#ellipsePathGreen" />
    </animateMotion>
  </circle>

  <!-- Define the Ellipse Path -->
  <path id="ellipsePathGreen" d="M 50 40 A 1 3 60 1 1 50 60 A 1 3 60 1 1 50 40" fill="none" />

   <!-- Orange Circle (Electron) -->
  <circle r="4" fill="#13678A">
    <animateMotion repeatCount="indefinite" dur="1s">
      <!-- Define the elliptical path using the same ellipse attributes -->
      <mpath href="#ellipsePathOrange" />
    </animateMotion>
  </circle>
  <!-- Define the Ellipse Path -->
  <path id="ellipsePathOrange" d="M 42 60 A 1 3 180 1 1 57 40 A 1 3 180 1 1 42 60" fill="none" />
</svg>